<svg width="24" height="24" viewBox="0 0 24 24" fill="none" xmlns="http://www.w3.org/2000/svg">
<path d="M19.1239 2.96486V8.29564C19.1241 8.57078 19.1102 8.84576 19.0823 9.11949C19.0823 9.31548 19.0439 9.51147 19.0071 9.69947C18.9997 9.73725 18.9924 9.77471 18.9854 9.81179C18.8828 10.3308 18.7297 10.8386 18.5285 11.3279C18.2498 12.0168 17.8745 12.6625 17.4139 13.2456C16.6005 14.2774 15.5731 15.1207 14.4023 15.7172C13.937 15.4331 13.5735 15.009 13.3639 14.5056C14.4032 14.0227 15.3211 13.313 16.05 12.4287C17.0334 11.2676 17.5752 9.79646 17.58 8.27487V3.9064L17.2616 3.75409C15.6127 2.96238 13.8205 2.51258 11.9931 2.43179C10.0451 2.5219 8.13851 3.02451 6.39927 3.9064V5.76872C5.86924 5.92178 5.35286 6.11862 4.85542 6.35718V2.96486L5.24311 2.74332C7.32641 1.62875 9.63279 0.994789 11.9931 0.887939C14.3502 0.998547 16.6522 1.63736 18.7292 2.75717L19.1239 2.96486Z" fill="#3880FF"/>
<path d="M23.5831 10.6912V11.1481C23.5082 13.5069 22.9099 15.8196 21.8316 17.9189C20.5557 19.9041 18.8498 21.5769 16.84 22.8135L16.4523 23.042L15.76 22.6473L11.8415 20.3835C11.6017 20.2479 11.3705 20.0976 11.1492 19.9335C10.9541 19.802 10.769 19.6561 10.5953 19.4973C10.1909 19.1543 9.82419 18.769 9.50148 18.3481C9.05019 17.7611 8.68424 17.1131 8.41459 16.4235C7.9294 15.2009 7.71448 13.8878 7.78459 12.5743C8.16908 12.365 8.59992 12.2555 9.03768 12.2558H9.35609C9.24708 13.3999 9.39366 14.5538 9.78532 15.6343C10.3003 17.0727 11.3085 18.282 12.6308 19.0473L16.4385 21.242L16.7293 21.0412C18.2389 20.0097 19.5245 18.684 20.5093 17.1435C21.3944 15.4229 21.9108 13.5366 22.0254 11.605L20.4123 10.6704C20.5436 10.134 20.6293 9.58744 20.6685 9.03657L23.5831 10.6912Z" fill="#3880FF"/>
<path d="M1.98951 11.5565L5.79721 9.36188C7.1275 8.58523 8.69096 8.30789 10.2072 8.57958C11.3291 8.78184 12.3928 9.22856 13.3226 9.88806C13.6263 9.45258 13.7948 8.93725 13.8072 8.4065C12.7056 7.69127 11.4641 7.21923 10.1657 7.02188C9.43042 6.92493 8.68556 6.92493 7.95029 7.02188C7.42412 7.08907 6.90658 7.21207 6.40644 7.38881C6.1849 7.46496 5.96337 7.55496 5.74875 7.65188C5.49798 7.76403 5.25305 7.8888 5.01489 8.02573L1.11028 10.2827L0.417969 10.6842V11.1342C0.485956 13.4953 1.0821 15.8113 2.16259 17.9119C3.43545 19.8966 5.13622 21.5713 7.14029 22.8134L7.5349 23.0419L10.4564 21.3457C9.99913 21.036 9.56833 20.6886 9.16875 20.3073L7.5349 21.2419C5.90917 20.1708 4.52693 18.7697 3.47797 17.1296C2.62862 15.5053 2.122 13.7239 1.98951 11.8957V11.5565Z" fill="#3880FF"/>
</svg>
