<svg width="24" height="24" viewBox="0 0 24 24" fill="none" xmlns="http://www.w3.org/2000/svg">
<path d="M16.624 13.9202L19.3415 16.6356L11.9885 23.9886L4.6355 16.6366L7.353 13.9202L11.9885 18.5797L16.6241 13.9202H16.624ZM21.2606 9.28355L24 12L21.2846 14.7164L18.5682 12L21.2606 9.28355ZM11.9886 9.28455L14.7049 11.976L11.9885 14.6934V14.6924L9.2721 12L11.9885 9.28455H11.9886ZM2.7164 9.28355L5.4088 12L2.7174 14.6924L0 12L2.7164 9.28355ZM11.9885 0.0114525L19.3415 7.34045L16.6241 10.0559L11.9885 5.42025L7.353 10.0798L4.6356 7.36435L11.9886 0.0113525L11.9885 0.0114525Z" fill="#F0B90B"/>
</svg>
