<svg width="24" height="24" viewBox="0 0 24 24" fill="none" xmlns="http://www.w3.org/2000/svg">
<path d="M4.5 2.625C4.5 2.41789 4.66789 2.25 4.875 2.25C8.18872 2.25 10.875 4.93629 10.875 8.25V13.5C10.875 13.7071 10.7071 13.875 10.5 13.875H4.875C4.66789 13.875 4.5 13.7071 4.5 13.5V2.625Z" fill="#182A71"/>
<path d="M12.375 7.40625C12.375 7.25092 12.5009 7.125 12.6562 7.125C16.2289 7.125 19.125 10.0211 19.125 13.5938C19.125 13.7491 18.9991 13.875 18.8438 13.875H15.375C13.7182 13.875 12.375 12.5318 12.375 10.875V7.40625Z" fill="#3485C4"/>
<path fill-rule="evenodd" clip-rule="evenodd" d="M19.3628 15.4109C19.3968 15.1918 19.2227 15 19.001 15H4.90318C4.68143 15 4.50733 15.1918 4.54138 15.4109C5.09937 19.0018 8.20478 21.75 11.9521 21.75C15.6994 21.75 18.8048 19.0018 19.3628 15.4109Z" fill="#AFD8F7"/>
</svg>
