<svg width="55" height="24" viewBox="0 0 55 24" fill="none" xmlns="http://www.w3.org/2000/svg">
<path d="M8.96452 19.662C13.8097 19.662 16.4762 18.9527 17.3553 17.4304C17.4078 17.3393 17.4542 17.2437 17.4952 17.1444C16.7474 17.5362 15.0613 17.9961 11.2634 17.9961C5.66464 17.9961 4.6522 16.9964 4.47498 16.6895C4.29817 16.3831 3.9384 15.0063 6.7378 10.1574C6.91133 9.85674 7.07993 9.57286 7.24279 9.30539C8.43573 7.30922 9.79482 5.36105 11.3931 4.03478C10.532 3.26929 9.73042 2.89722 8.96452 2.89722C7.20628 2.89722 5.25934 4.85154 2.83653 9.04777C0.413719 13.244 -0.305001 15.9076 0.573708 17.4304C1.45283 18.9527 4.11931 19.662 8.96452 19.662Z" fill="white"/>
<path d="M20.1127 7.6926C17.9167 3.88897 15.1534 0 11.3137 0C8.85396 0 6.83646 1.59702 5.12621 3.74457C6.4693 2.32846 7.73321 1.66553 9.01518 1.66553C11.2899 1.66553 13.5092 3.75277 16.2114 8.43307C18.9136 13.1134 19.6114 16.0793 18.4738 18.0492C17.3367 20.0191 14.4195 20.8979 9.01518 20.8979C4.20689 20.8979 1.36893 20.2017 0 18.6609C0.0758922 18.8291 0.157939 18.9956 0.252291 19.1589C2.17216 22.4842 6.92137 22.9326 11.3137 22.9326C15.7064 22.9326 20.4552 22.4842 22.3755 19.1589C24.2954 15.8336 22.309 11.4967 20.1127 7.6926Z" fill="white"/>
<path d="M28.665 1.56236V9.8219H31.7459V5.56127C31.7459 4.49591 32.008 4.15172 33.2699 4.15172C34.5481 4.15172 34.8759 4.51232 34.8759 5.65972V9.8219H37.9567V5.56127C37.9567 4.49591 38.2188 4.15172 39.4807 4.15172C40.759 4.15172 41.0868 4.51232 41.0868 5.65972V9.8219H44.1676V4.52872C44.1676 2.74259 43.1683 1.39868 41.0539 1.39868C38.9072 1.39868 38.1208 2.69336 37.9403 4.07009H37.7766C37.6125 2.5785 36.6784 1.39868 34.7286 1.39868C32.6471 1.39868 31.8935 2.69336 31.713 4.07009H31.5494V1.56236H28.665Z" fill="white"/>
<path fill-rule="evenodd" clip-rule="evenodd" d="M49.6726 1.39868C46.9196 1.39868 44.9693 3.00473 44.9693 5.69213C44.9693 8.78936 46.936 9.98558 49.7382 9.98558C52.5241 9.98558 54.2778 8.69131 54.2778 6.85554V6.65904H51.1966V6.83913C51.1966 7.33099 50.8688 7.5439 49.6234 7.5439C48.3127 7.5439 47.8701 7.26536 47.8208 6.26563H54.2938C54.3266 5.97068 54.3431 5.75777 54.3431 5.47922C54.3431 2.82423 52.5241 1.39868 49.6726 1.39868ZM51.3607 4.70881H47.8701C48.0013 4.00445 48.4764 3.75832 49.607 3.75832C50.7544 3.75832 51.2458 4.00445 51.3607 4.70881Z" fill="white"/>
<path d="M32.4512 21.0532C30.6978 21.0532 29.6161 20.2832 29.6161 18.3002V14.3833H28.2397V12.9086H29.6161V11.1224H31.3694V12.9086H34.3193V14.3833H31.3694V18.2017C31.3694 19.2015 31.8284 19.4636 32.8446 19.4636H34.3193V21.0532H32.4512Z" fill="white"/>
<path fill-rule="evenodd" clip-rule="evenodd" d="M34.7401 19.083C34.7401 17.8211 35.7563 17.1656 37.3623 16.9855L41.0659 16.5921V16.1166C41.0659 14.7731 40.476 14.2977 38.9191 14.2977C37.4115 14.2977 36.674 14.7895 36.674 15.9858V16.051H34.9206V15.9858C34.9206 14.1336 36.461 12.7409 39.0504 12.7409C41.6394 12.7409 42.8032 14.15 42.8032 16.1002V21.0492H41.1807V19.0174H41.0659C40.6396 20.3937 39.3454 21.2133 37.4936 21.2133C35.8055 21.2133 34.7401 20.4265 34.7401 19.083ZM37.9686 19.935C39.8204 19.935 41.0659 19.2467 41.0659 17.6406L37.8702 18.0012C36.9525 18.1161 36.5103 18.329 36.5103 18.9681C36.5103 19.6237 36.9525 19.935 37.9686 19.935Z" fill="white"/>
<path fill-rule="evenodd" clip-rule="evenodd" d="M47.673 12.7409C45.1985 12.7409 43.6909 14.2654 43.6909 16.5265C43.6909 18.7881 45.1333 20.3121 47.5586 20.3121C49.4103 20.3121 50.5081 19.4273 50.803 18.1982H50.9179V20.1977C50.9179 22.0166 50.246 22.5245 48.3942 22.5245C46.6573 22.5245 45.9689 22.0818 45.9689 20.902H44.2156C44.2156 22.8687 45.8869 23.9993 48.2961 23.9993C50.9671 23.9993 52.6712 22.8358 52.6712 20.0992V12.905H51.0492V14.9369H50.9507C50.6558 13.5114 49.3775 12.7409 47.673 12.7409ZM50.9179 16.5922C50.9179 18.0345 49.9346 18.7881 48.132 18.7881C46.4604 18.7881 45.4775 18.1982 45.4775 16.5265C45.4775 14.8553 46.4768 14.2813 48.1813 14.2813C49.9018 14.2813 50.9179 14.9861 50.9179 16.3628V16.5922Z" fill="white"/>
</svg>
