<svg width="24" height="24" viewBox="0 0 24 24" fill="none" xmlns="http://www.w3.org/2000/svg">
<path d="M22.2097 19.6169L20.8123 19.9584L20.5231 20.1779L8.19507 18.5202H0.902344L3.50635 12.0749L7.73975 12.1002L8.76493 13.9606L12.1468 17.4713L11.7087 15.2853L14.7271 15.8219L20.5231 20.1779L15.9421 15.8219L15.1899 13.7411L12.5439 7.29668C12.5439 7.29668 10.5108 3.69688 10.4688 3.65654C10.5261 3.66404 15.1899 3.63965 15.1899 3.63965L16.0414 7.10154L17.9191 13.7411L18.4316 15.5377L20.25 17.642L18.7705 15.3829L19.7374 14.9767L20.2004 17.0247L20.2424 17.642L22.2097 19.6169Z" fill="#F58C25"/>
<path d="M7.73895 12.0992L3.50554 12.0748L2.49658 11.01L3.13327 10.5878L1.99258 9.97794L2.96813 9.71806L1.62891 8.88965L2.43072 8.54815L2.62927 7.31257L4.85336 3.23335L7.86304 0.639282L10.4594 3.65459L12.5431 7.28723L7.73895 12.0983V12.0992Z" fill="#81491F"/>
<path d="M0.902344 18.5201H8.20271L10.1958 21.1367C10.1958 21.1367 5.23502 22.6078 2.74557 23.3555C2.10889 21.6893 1.50466 20.1047 0.902344 18.5201Z" fill="#E48027"/>
<path d="M20.5312 7.47499L21.1182 8.1411L20.6887 8.64584L21.2834 9.06802L20.8538 9.62905L20.9531 10.5147L20.2171 11.3759L16.041 7.10159L22.6971 1.68079L20.5312 7.47499Z" fill="#81491F"/>
<path d="M20.5239 20.1779L20.5486 21.7952L18.1757 22.9736L10.188 21.1442C10.188 21.1442 10.1298 21.1854 10.188 21.1442C13.5366 20.828 20.5239 20.1779 20.5239 20.1779Z" fill="#D9C6B7"/>
<path d="M22.6969 1.68079L16.0409 7.1016L15.1895 3.63971L22.6969 1.68079Z" fill="#E48027"/>
<path d="M16.041 7.10144L20.2085 11.3758L20.0348 13.5946L17.9186 13.7409L16.041 7.10144Z" fill="#E57F24"/>
<path d="M10.1875 21.1356L18.1741 22.9651L20.5472 21.7858L22.1766 21.6479L20.9357 23.241L17.5709 23.5412L10.1875 21.1356Z" fill="#C7B7AB"/>
<path d="M10.1876 21.1366L8.20312 18.5191L12.1473 17.4712L10.1876 21.1366Z" fill="#D76F21"/>
<path d="M22.1777 21.648C21.6317 21.6967 21.0943 21.7455 20.5483 21.7869L20.5234 20.1694L20.8127 19.9499L22.2102 19.6168C22.2102 19.6168 22.6817 19.9414 23.0864 20.1694C22.7647 20.6892 22.466 21.1685 22.1777 21.648Z" fill="#2A2626"/>
<path d="M17.918 13.7411L20.0352 13.5947L19.7459 14.9767L18.9441 14.0338L18.7704 15.3829L20.2499 17.6421L18.4316 15.5292L17.9189 13.7411H17.918Z" fill="#D66F21"/>
<path d="M7.74023 12.0991L12.5445 7.28809L15.1905 13.7409L8.76637 13.9605L7.74023 12.0991Z" fill="#E47E25"/>
<path d="M10.1875 21.1366L12.1472 17.4712L20.5233 20.1778L10.1875 21.1366Z" fill="#E47F26"/>
<path d="M8.76562 13.9606L15.1897 13.7411L14.7268 15.822L13.6443 14.1802L11.7094 15.2854L8.76562 13.9606Z" fill="#D66F21"/>
<path d="M14.7266 15.822L15.1894 13.7411L15.9416 15.822L20.5234 20.178C20.5234 20.178 16.0495 16.8212 14.7266 15.822Z" fill="#E47F25"/>
<path d="M14.7272 15.8219L11.709 15.2853L13.6438 14.1801L14.7272 15.8219Z" fill="#32404E"/>
<path d="M11.7094 15.2851L12.1476 17.4711L8.76562 13.9613L11.7094 15.2861V15.2851Z" fill="#E57F25"/>
<path d="M18.7715 15.3829L18.9452 14.0338L19.747 14.9758L18.7715 15.3829Z" fill="#38424D"/>
<path d="M19.7461 14.9767L20.0353 13.5947L20.3408 15.0658L20.2091 17.0248L19.7461 14.9767Z" fill="#E57F24"/>
</svg>
