<svg width="91" height="40" viewBox="0 0 91 40" fill="none" xmlns="http://www.w3.org/2000/svg">
<path d="M14.9407 32.7701C23.016 32.7701 27.4602 31.5879 28.9254 29.0507C29.0129 28.8989 29.0902 28.7396 29.1585 28.5741C27.9121 29.2271 25.1021 29.9935 18.7722 29.9935C9.44091 29.9935 7.7535 28.3273 7.45814 27.8159C7.16346 27.3051 6.56384 25.0106 11.2295 16.9291C11.5187 16.4279 11.7997 15.9548 12.0712 15.509C14.0594 12.1821 16.3245 8.93512 18.9883 6.72467C17.5532 5.44886 16.2172 4.82874 14.9407 4.82874C12.0103 4.82874 8.7654 8.08595 4.72738 15.0797C0.689369 22.0734 -0.508498 26.5127 0.956017 29.0507C2.42122 31.5879 6.86536 32.7701 14.9407 32.7701Z" fill="url(#paint0_linear_7898_8027)"/>
<path d="M33.5211 12.821C29.8612 6.48161 25.2557 0 18.8561 0C14.7566 0 11.3941 2.6617 8.54369 6.24094C10.7822 3.88076 12.8887 2.77588 15.0253 2.77588C18.8165 2.77588 22.5154 6.25462 27.019 14.0551C31.5226 21.8556 32.6856 26.7989 30.7897 30.082C28.8944 33.3652 24.0325 34.8298 15.0253 34.8298C7.01149 34.8298 2.28155 33.6695 0 31.1015C0.126487 31.3818 0.263231 31.6594 0.420485 31.9315C3.62027 37.4737 11.5356 38.221 18.8561 38.221C26.1774 38.221 34.092 37.4737 37.2925 31.9315C40.4923 26.3893 37.1817 19.1611 33.5211 12.821Z" fill="url(#paint1_linear_7898_8027)"/>
<path d="M47.7754 2.60386V16.3698H52.9101V9.2687C52.9101 7.49309 53.347 6.91946 55.4501 6.91946C57.5805 6.91946 58.1268 7.52044 58.1268 9.43279V16.3698H63.2615V9.2687C63.2615 7.49309 63.6984 6.91946 65.8015 6.91946C67.932 6.91946 68.4782 7.52044 68.4782 9.43279V16.3698H73.6129V7.54779C73.6129 4.5709 71.9474 2.33105 68.4236 2.33105C64.8457 2.33105 63.535 4.48886 63.2342 6.7834H62.9614C62.6879 4.29742 61.1311 2.33105 57.8814 2.33105C54.4122 2.33105 53.1562 4.48886 52.8554 6.7834H52.5826V2.60386H47.7754Z" fill="white"/>
<path fill-rule="evenodd" clip-rule="evenodd" d="M82.788 2.33105C78.1996 2.33105 74.9492 5.00779 74.9492 9.4868C74.9492 14.6488 78.2269 16.6426 82.8974 16.6426C87.5405 16.6426 90.4634 14.4854 90.4634 11.4258V11.0983H85.328V11.3985C85.328 12.2182 84.7817 12.5731 82.706 12.5731C80.5215 12.5731 79.7838 12.1088 79.7017 10.4426H90.49C90.5447 9.95105 90.5721 9.5962 90.5721 9.13196C90.5721 4.70696 87.5405 2.33105 82.788 2.33105ZM85.6015 7.84794H79.7838C80.0025 6.67401 80.7943 6.26378 82.6786 6.26378C84.591 6.26378 85.41 6.67401 85.6015 7.84794Z" fill="white"/>
<path d="M54.0854 35.0887C51.1632 35.0887 49.3603 33.8054 49.3603 30.5003V23.9722H47.0664V21.5142H49.3603V18.5374H52.2825V21.5142H57.199V23.9722H52.2825V30.3362C52.2825 32.0024 53.0475 32.4393 54.7411 32.4393H57.199V35.0887H54.0854Z" fill="white"/>
<path fill-rule="evenodd" clip-rule="evenodd" d="M57.9004 31.805C57.9004 29.7019 59.594 28.6093 62.2707 28.3091L68.4433 27.6534V26.861C68.4433 24.6219 67.4601 23.8294 64.8654 23.8294C62.3527 23.8294 61.1234 24.6492 61.1234 26.6429V26.7516H58.2012V26.6429C58.2012 23.556 60.7686 21.2347 65.0842 21.2347C69.3991 21.2347 71.3388 23.5833 71.3388 26.8337V35.082H68.6347V31.6956H68.4433C67.7329 33.9894 65.5758 35.3555 62.4895 35.3555C59.676 35.3555 57.9004 34.0441 57.9004 31.805ZM63.2812 33.225C66.3675 33.225 68.4433 32.0778 68.4433 29.401L63.1171 30.002C61.5877 30.1934 60.8506 30.5483 60.8506 31.6135C60.8506 32.7061 61.5877 33.225 63.2812 33.225Z" fill="white"/>
<path fill-rule="evenodd" clip-rule="evenodd" d="M79.4552 21.2349C75.331 21.2349 72.8184 23.7755 72.8184 27.5442C72.8184 31.3135 75.2223 33.8535 79.2644 33.8535C82.3507 33.8535 84.1803 32.3787 84.6719 30.3303H84.8633V33.6627C84.8633 36.6943 83.7434 37.5408 80.6571 37.5408C77.7623 37.5408 76.615 36.803 76.615 34.8367H73.6928C73.6928 38.1144 76.4783 39.9987 80.4937 39.9987C84.9454 39.9987 87.7855 38.0597 87.7855 33.4986V21.5083H85.0821V24.8948H84.918C84.4265 22.5189 82.296 21.2349 79.4552 21.2349ZM84.8633 27.6536C84.8633 30.0575 83.2245 31.3135 80.2202 31.3135C77.4341 31.3135 75.7959 30.3303 75.7959 27.5442C75.7959 24.7587 77.4615 23.8022 80.3023 23.8022C83.1698 23.8022 84.8633 24.9768 84.8633 27.2714V27.6536Z" fill="white"/>
<defs>
<linearGradient id="paint0_linear_7898_8027" x1="3.55141" y1="36.9155" x2="18.3691" y2="1.38432" gradientUnits="userSpaceOnUse">
<stop offset="0.299343" stop-color="#FFCC00"/>
<stop offset="1" stop-color="#FF3300"/>
</linearGradient>
<linearGradient id="paint1_linear_7898_8027" x1="38.5047" y1="-4.48598" x2="-4.7921" y2="37.721" gradientUnits="userSpaceOnUse">
<stop offset="0.5" stop-color="#FFCC00"/>
<stop offset="1" stop-color="#FF3300"/>
</linearGradient>
</defs>
</svg>
