<svg width="24" height="24" viewBox="0 0 24 24" fill="none" xmlns="http://www.w3.org/2000/svg">
<g clip-path="url(#clip0_7528_1352)">
<path d="M4.30664 13.8006L4.88057 13.5479L12.0047 10.4518L19.7028 13.8006L16.812 19.7717L9.74059 20.7721L4.42248 15.0328L4.30664 13.8006Z" fill="#133444"/>
<path d="M18.1024 10.1149C16.8335 8.58258 15.0274 7.58741 13.0581 7.32414C13.016 7.31887 12.9739 7.31361 12.9318 7.30833C12.3157 7.23462 11.6944 7.23462 11.0783 7.30833C11.0362 7.31361 10.9941 7.31887 10.9519 7.32414C8.9774 7.58741 7.17662 8.58258 5.90764 10.1149L5.58645 10.6466L5.05464 11.5313L4.665 12.1789C4.65973 12.1947 4.6492 12.2157 4.64394 12.2316L4.63867 12.2421L5.50221 12.7528L10.9519 15.9806L12.005 16.6019V8.88797L10.9519 9.36713V8.21399L12.005 7.73484L13.0581 8.21399L18.4236 10.6519L18.1024 10.1149Z" fill="#C42370"/>
<path d="M19.9404 15.7173C19.9404 18.2869 18.7188 20.6879 16.8285 22.236C16.0861 22.8467 15.2331 23.3206 14.3221 23.6261C13.5744 23.8735 12.7952 23.9999 12.0106 23.9999C7.62449 23.9999 4.07031 20.1035 4.07031 15.7173C4.07031 15.0696 4.14929 14.4273 4.30199 13.7954L12.0053 18.3553L19.7034 13.8007C19.8614 14.4273 19.9404 15.0749 19.9404 15.7173Z" fill="#1C4D6B"/>
<path d="M11.0775 7.31378L12.0043 7.73501L10.9512 8.21417V7.25586L11.0775 7.31378Z" fill="black"/>
<path d="M10.9512 9.3671L12.0043 8.88794V16.6071L10.9512 15.9805V9.3671Z" fill="black"/>
<path d="M12.0059 8.88794V16.6071L19.3828 12.242L12.0059 8.88794Z" fill="#1D4259"/>
<path d="M12.0059 -0.00012207V8.88796L19.3828 12.242L12.0059 -0.00012207Z" fill="#4B6B9A"/>
<path d="M12.0052 8.88797V16.6018L10.9521 15.9805L4.63358 12.242L4.62305 12.2368L4.63884 12.2315C4.64411 12.2157 4.65464 12.1946 4.65991 12.1789L5.58136 10.6466L10.9521 8.21399V9.37239L12.0052 8.88797Z" fill="#343535"/>
<path d="M12.0038 8.88794V16.6071L10.9508 15.9805L4.63222 12.2473L4.62695 12.242L4.63748 12.2368L10.9508 9.3671L12.0038 8.88794Z" fill="#3E5578"/>
<path d="M12.0038 -0.00012207V8.88796L4.62695 12.242L12.0038 -0.00012207Z" fill="#6DB2D8"/>
<path d="M9.01953 23.368C9.13011 23.4154 9.24068 23.4628 9.35126 23.505C9.24068 23.4628 9.13011 23.4207 9.01953 23.368Z" fill="#335F8A"/>
<path d="M9.35156 23.5048C9.46213 23.5469 9.57797 23.589 9.69382 23.6259C9.57797 23.589 9.46213 23.5521 9.35156 23.5048Z" fill="#335F8A"/>
<path d="M9.98242 23.7208C10.0719 23.7471 10.1562 23.7682 10.2457 23.7892C10.1614 23.7682 10.0719 23.7418 9.98242 23.7208Z" fill="#335F8A"/>
<path d="M4.30726 13.8008L12.0053 18.3554C11.9 19.0505 11.7157 19.7244 11.4525 20.3773C10.8364 21.8675 9.59377 23.4419 7.1822 22.2413C5.28663 20.6933 4.07031 18.287 4.07031 15.7174C4.07031 15.075 4.14929 14.4274 4.30726 13.8008Z" fill="#6DB2D8"/>
<path d="M16.8223 22.241L16.8012 22.2568C16.759 22.2884 16.7222 22.32 16.68 22.3516L16.6695 22.3621C16.6274 22.399 16.58 22.4306 16.5379 22.4622C16.4905 22.499 16.4431 22.5359 16.3905 22.5675C16.3378 22.599 16.2904 22.6359 16.243 22.6728C16.1956 22.7097 16.1535 22.7307 16.1114 22.7623L16.0851 22.7781C16.0377 22.8097 15.9903 22.8361 15.9482 22.8676C15.9429 22.8728 15.9377 22.8728 15.9324 22.8781C15.885 22.9097 15.8377 22.9361 15.7903 22.9624C15.7429 22.9887 15.6849 23.0256 15.6322 23.0519C15.5796 23.0835 15.527 23.1098 15.4743 23.1361L15.4691 23.1414C15.4164 23.1678 15.3637 23.194 15.311 23.2204C15.2584 23.2467 15.2057 23.2731 15.1479 23.2993C15.09 23.3257 15.0373 23.3521 14.9846 23.3731C14.874 23.4205 14.7635 23.4679 14.6529 23.51C14.5423 23.5521 14.4264 23.5943 14.3106 23.631C14.2632 23.6469 14.2211 23.6627 14.1737 23.6732C14.1263 23.689 14.0684 23.7048 14.021 23.7206C13.9315 23.7469 13.8473 23.768 13.7578 23.7891C13.7262 23.7996 13.6893 23.8048 13.6577 23.8153L13.5998 23.826C13.5524 23.8365 13.505 23.847 13.4576 23.8575C13.4102 23.8681 13.3734 23.8733 13.326 23.8838C13.2786 23.8944 13.247 23.8996 13.2049 23.9049C13.1628 23.9101 13.1154 23.9207 13.0733 23.926C13.0522 23.9312 13.0311 23.9312 13.0101 23.9365L12.91 23.947L12.8521 23.9523C12.8152 23.9575 12.7784 23.9629 12.7415 23.9629C12.6941 23.9681 12.652 23.9734 12.6046 23.9734C12.5678 23.9734 12.5362 23.9786 12.4993 23.9839C12.4625 23.9839 12.4361 23.9891 12.4045 23.9891H12.3993C12.3624 23.9891 12.3256 23.9944 12.294 23.9944C12.2466 23.9944 12.1939 23.9996 12.1465 23.9996C12.0991 23.9996 12.0465 23.9996 11.9938 23.9996C11.9412 23.9996 11.8938 23.9996 11.8411 23.9996C11.7885 23.9996 11.7411 23.9996 11.6937 23.9944C11.6568 23.9944 11.62 23.9891 11.5831 23.9891H11.5779C11.5463 23.9891 11.5147 23.9839 11.4831 23.9839C11.4515 23.9839 11.4146 23.9786 11.3778 23.9734C11.3304 23.9681 11.2883 23.9681 11.2409 23.9629C11.204 23.9575 11.1672 23.9575 11.1303 23.9523L11.0776 23.947C11.0461 23.9417 11.0092 23.9365 10.9776 23.9365C10.9565 23.9365 10.9355 23.9312 10.9144 23.926C10.8723 23.9207 10.8249 23.9155 10.7828 23.9049C10.7407 23.8996 10.7038 23.8891 10.6617 23.8838C10.6195 23.8786 10.5774 23.8681 10.53 23.8575C10.4879 23.847 10.4353 23.8365 10.3879 23.826L10.33 23.8153C10.2984 23.8101 10.2615 23.7996 10.2299 23.7891C10.1404 23.768 10.0561 23.7417 9.96663 23.7206L9.80868 23.6732C9.76129 23.6574 9.71917 23.6469 9.67177 23.631C9.55593 23.5943 9.44535 23.5521 9.32952 23.51C9.21368 23.4679 9.1031 23.4205 8.99779 23.3731C8.94514 23.3467 8.88722 23.3257 8.83456 23.2993C8.78191 23.2731 8.72399 23.2467 8.67133 23.2204C8.61868 23.194 8.56603 23.1678 8.51337 23.1414L8.50811 23.1361C8.45545 23.1098 8.4028 23.0783 8.35014 23.0519C8.29749 23.0256 8.24484 22.994 8.19218 22.9624C8.13952 22.9308 8.0974 22.9045 8.05001 22.8781L8.03422 22.8676C7.98683 22.8413 7.93944 22.8097 7.89732 22.7781L7.87099 22.7623C7.82886 22.7359 7.78148 22.7044 7.73935 22.6728C7.69723 22.6412 7.63931 22.6044 7.59192 22.5675C7.54453 22.5306 7.49714 22.499 7.44448 22.4622C7.3971 22.4253 7.35497 22.3937 7.31285 22.3621L7.30232 22.3516C7.2602 22.32 7.22334 22.2884 7.18121 22.2568L7.16016 22.241C9.56646 23.4415 10.8144 21.8619 11.4304 20.377C11.6937 19.7294 11.878 19.0502 11.9833 18.3551C12.0886 19.0502 12.2729 19.7241 12.5362 20.377C13.1733 21.8619 14.4159 23.4362 16.8223 22.241Z" fill="#529BBA"/>
<path d="M13.7578 23.7892C13.8473 23.7682 13.9368 23.7418 14.0211 23.7208C13.9368 23.7471 13.8473 23.7682 13.7578 23.7892Z" fill="#335F8A"/>
<path d="M14.3164 23.6312C14.4322 23.5943 14.5428 23.5523 14.6586 23.5101C14.5481 23.5523 14.4322 23.589 14.3164 23.6312Z" fill="#335F8A"/>
<path d="M14.6582 23.505C14.7687 23.4628 14.8794 23.4154 14.9899 23.368C14.8846 23.4207 14.7687 23.4628 14.6582 23.505Z" fill="#335F8A"/>
<path d="M19.9409 15.7174C19.9409 18.287 18.7193 20.688 16.829 22.2413C14.4227 23.4419 13.1748 21.8622 12.5587 20.3773C12.2955 19.7298 12.1112 19.0505 12.0059 18.3554L19.7039 13.8008C19.8619 14.4274 19.9409 15.075 19.9409 15.7174Z" fill="#4B6B9A"/>
</g>
<defs>
<clipPath id="clip0_7528_1352">
<rect width="24" height="24" fill="white"/>
</clipPath>
</defs>
</svg>
