<svg width="16" height="16" viewBox="0 0 16 16" fill="none" xmlns="http://www.w3.org/2000/svg">
<path d="M8.66732 6.00004H7.33398V4.66671H8.66732V6.00004ZM8.66732 11.3334H7.33398V7.33337H8.66732V11.3334ZM8.00065 1.33337C7.12517 1.33337 6.25827 1.50581 5.44943 1.84084C4.64059 2.17588 3.90566 2.66694 3.28661 3.286C2.03636 4.53624 1.33398 6.23193 1.33398 8.00004C1.33398 9.76815 2.03636 11.4638 3.28661 12.7141C3.90566 13.3331 4.64059 13.8242 5.44943 14.1592C6.25827 14.4943 7.12517 14.6667 8.00065 14.6667C9.76876 14.6667 11.4645 13.9643 12.7147 12.7141C13.9649 11.4638 14.6673 9.76815 14.6673 8.00004C14.6673 7.12456 14.4949 6.25766 14.1598 5.44882C13.8248 4.63998 13.3338 3.90505 12.7147 3.286C12.0956 2.66694 11.3607 2.17588 10.5519 1.84084C9.74304 1.50581 8.87613 1.33337 8.00065 1.33337Z" fill="#94A3B8"/>
</svg>
