<svg width="24" height="24" viewBox="0 0 24 24" fill="none" xmlns="http://www.w3.org/2000/svg">
<rect width="24" height="24" rx="12" fill="#3B99FC"/>
<path d="M7.27553 8.95383C9.88479 6.34872 14.1152 6.34872 16.7245 8.95383L17.0385 9.26735C17.169 9.39761 17.169 9.60879 17.0385 9.73905L15.9643 10.8116C15.8991 10.8767 15.7933 10.8767 15.7281 10.8116L15.2959 10.3801C13.4756 8.56273 10.5244 8.56273 8.7041 10.3801L8.24131 10.8422C8.17608 10.9073 8.07032 10.9073 8.00508 10.8422L6.93086 9.76965C6.80039 9.63939 6.80039 9.42821 6.93086 9.29795L7.27553 8.95383ZM18.9461 11.1719L19.9022 12.1264C20.0326 12.2567 20.0326 12.4679 19.9022 12.5981L15.5912 16.9023C15.4607 17.0326 15.2492 17.0326 15.1187 16.9023C15.1187 16.9023 15.1187 16.9023 15.1187 16.9023L12.0591 13.8475C12.0265 13.815 11.9736 13.815 11.941 13.8475C11.941 13.8475 11.941 13.8475 11.941 13.8475L8.88138 16.9023C8.75092 17.0326 8.5394 17.0326 8.40893 16.9023C8.40893 16.9023 8.40893 16.9023 8.40893 16.9023L4.09785 12.5981C3.96738 12.4678 3.96738 12.2566 4.09785 12.1264L5.05391 11.1718C5.18438 11.0416 5.3959 11.0416 5.52636 11.1718L8.58606 14.2267C8.61868 14.2592 8.67156 14.2592 8.70418 14.2267C8.70418 14.2267 8.70418 14.2267 8.70418 14.2267L11.7637 11.1718C11.8942 11.0416 12.1057 11.0416 12.2362 11.1718C12.2362 11.1718 12.2362 11.1718 12.2362 11.1718L15.2959 14.2267C15.3285 14.2592 15.3814 14.2592 15.414 14.2267L18.4736 11.1719C18.6041 11.0416 18.8156 11.0416 18.9461 11.1719Z" fill="white"/>
</svg>
